<?xml version="1.0" encoding="UTF-8"?>
<svg id="Layer_2" data-name="Layer 2" xmlns="http://www.w3.org/2000/svg" viewBox="0 0 252 77.04">
  <defs>
    <style>
      .cls-1 {
        fill: #231f20;
      }
    </style>
  </defs>
  <path class="cls-1" d="M7.44,30.84v-1.92L29.16,13.68v2.16L9.36,29.76v.24l19.8,13.92v2.16L7.44,30.84Z"/>
  <path class="cls-1" d="M62.76,7.2h2.04l-19.56,52.2h-2.04L62.76,7.2Z"/>
  <path class="cls-1" d="M80.52,46.56h-.12l-.24,3.24h-1.56V6.48h1.8v12.84l-.12,6.36h.12c3-3.12,7.32-5.28,11.16-5.28,8.22,0,12.24,5.76,12.24,14.64,0,9.72-6.3,15.48-13.44,15.48-2.94,0-6.9-1.56-9.84-3.96Zm21.36-11.52c0-7.32-2.94-12.96-10.44-12.96-3.18,0-7.2,1.8-11.04,5.64v16.56c3.6,3.3,7.62,4.56,10.08,4.56,6.6,0,11.4-5.76,11.4-13.8Z"/>
  <path class="cls-1" d="M112.8,35.52c0-9.36,6.84-15.12,14.28-15.12s12.72,4.92,12.72,13.2c0,.6,0,1.2-.12,1.92h-26.28v-1.68h25.8l-1.08,.96c0-8.64-4.56-12.72-11.04-12.72s-12.36,4.92-12.36,13.32,6.12,13.44,13.08,13.44c4.08,0,7.26-1.32,9.96-3.24l.84,1.56c-2.52,1.62-5.58,3.36-10.8,3.36-8.16,0-15-5.64-15-15Z"/>
  <path class="cls-1" d="M149.16,45.96l1.08-1.44c3.12,2.52,6.9,4.32,13.2,4.32s9.48-2.88,9.48-6.12c0-2.76-.96-5.04-10.56-6.96-7.2-1.44-11.52-3.72-11.52-7.92,0-3.96,3.3-7.44,10.92-7.44,3.66,0,8.1,1.44,10.8,3.48l-1.08,1.44c-2.52-1.92-5.82-3.24-9.84-3.24-6.78,0-8.88,2.76-8.88,5.64,0,3.24,3.12,4.92,9.84,6.3,10.08,2.1,12.24,4.38,12.24,8.58s-4.2,7.92-11.52,7.92c-6,0-10.8-2.16-14.16-4.56Z"/>
  <path class="cls-1" d="M193.92,39.24V22.8h-8.88v-1.44l8.88-.24,.24-9.6h1.56v9.6h15.72v1.68h-15.72v16.68c0,5.76,1.56,9.36,8.28,9.36,3.12,0,5.52-.6,7.92-1.56l.6,1.44c-2.64,1.08-5.16,1.8-8.64,1.8-7.68,0-9.96-4.56-9.96-11.28Z"/>
  <path class="cls-1" d="M222.84,43.92l19.8-13.92v-.24l-19.8-13.92v-2.16l21.72,15.24v1.92l-21.72,15.24v-2.16Z"/>
</svg>